<svg xmlns="http://www.w3.org/2000/svg" xmlns:xlink="http://www.w3.org/1999/xlink" width="57px" height="57px" viewBox="0 0 57 57"><defs><style>.cls-1{fill:url(#Degradado_sin_nombre_14);}.cls-2{fill:url(#Degradado_sin_nombre_14-2);}.cls-3{fill:url(#Degradado_sin_nombre_6);}.cls-4{fill:url(#Degradado_sin_nombre_5);}.cls-5{fill:url(#Degradado_sin_nombre_2);}.cls-6{fill:url(#Degradado_sin_nombre_2-2);}.cls-7{fill:url(#Degradado_sin_nombre_14-3);}.cls-8{fill:url(#Degradado_sin_nombre_14-4);}.cls-9{fill:#0071bc;}.cls-10{fill:url(#Degradado_sin_nombre_10);}.cls-11{fill:url(#Degradado_sin_nombre_14-5);}.cls-12{fill:url(#Degradado_sin_nombre_14-6);}.cls-13{fill:url(#Degradado_sin_nombre_14-7);}.cls-14{fill:url(#Degradado_sin_nombre_14-8);}</style><linearGradient id="Degradado_sin_nombre_14" x1="39.58" y1="10937.63" x2="39.58" y2="11005.37" gradientTransform="matrix(1.07, 0, 0, -1.07, -13.71, 11736.37)" gradientUnits="userSpaceOnUse"><stop offset="0" stop-color="#fff"/><stop offset="1" stop-color="#e8efee"/></linearGradient><linearGradient id="Degradado_sin_nombre_14-2" x1="39.58" y1="11013.37" x2="39.58" y2="10947.83" xlink:href="#Degradado_sin_nombre_14"/><linearGradient id="Degradado_sin_nombre_6" x1="26.91" y1="10988.79" x2="51.01" y2="10964.69" gradientTransform="matrix(1.07, 0, 0, -1.07, -13.71, 11736.37)" gradientUnits="userSpaceOnUse"><stop offset="0" stop-color="#1ab5ff"/><stop offset="1" stop-color="#0ba6ff"/></linearGradient><radialGradient id="Degradado_sin_nombre_5" cx="41.15" cy="10974.08" r="25.17" gradientTransform="matrix(1.07, 0, 0, -1.07, -13.71, 11736.37)" gradientUnits="userSpaceOnUse"><stop offset="0" stop-color="#1a9eee" stop-opacity="0"/><stop offset="0.5" stop-color="#199ced" stop-opacity="0.5"/><stop offset="0.69" stop-color="#1795ea" stop-opacity="0.69"/><stop offset="0.81" stop-color="#128ae4" stop-opacity="0.81"/><stop offset="0.92" stop-color="#0c79dc" stop-opacity="0.92"/><stop offset="1" stop-color="#0465d2"/></radialGradient><linearGradient id="Degradado_sin_nombre_2" x1="42.95" y1="10973.03" x2="31.44" y2="10984.53" gradientTransform="matrix(1.07, 0, 0, -1.07, -13.71, 11736.37)" gradientUnits="userSpaceOnUse"><stop offset="0" stop-color="#1a9eee" stop-opacity="0"/><stop offset="1" stop-color="#0465d2"/></linearGradient><linearGradient id="Degradado_sin_nombre_2-2" x1="53.72" y1="10959.88" x2="37.4" y2="10981.6" xlink:href="#Degradado_sin_nombre_2"/><linearGradient id="Degradado_sin_nombre_14-3" x1="39.58" y1="10998.21" x2="39.58" y2="10974.75" xlink:href="#Degradado_sin_nombre_14"/><linearGradient id="Degradado_sin_nombre_14-4" x1="37.32" y1="10973.46" x2="29.49" y2="10965.64" xlink:href="#Degradado_sin_nombre_14"/><linearGradient id="Degradado_sin_nombre_10" x1="39.58" y1="10971.64" x2="39.58" y2="10978.44" gradientTransform="matrix(1.07, 0, 0, -1.07, -13.71, 11736.37)" gradientUnits="userSpaceOnUse"><stop offset="0" stop-color="#97aaaa"/><stop offset="1" stop-color="#e8efee"/></linearGradient><linearGradient id="Degradado_sin_nombre_14-5" x1="39.58" y1="10999.01" x2="39.58" y2="10993.24" xlink:href="#Degradado_sin_nombre_14"/><linearGradient id="Degradado_sin_nombre_14-6" x1="39.58" y1="10960.15" x2="39.58" y2="10954.38" xlink:href="#Degradado_sin_nombre_14"/><linearGradient id="Degradado_sin_nombre_14-7" x1="62.29" y1="10937.62" x2="56.51" y2="11005.36" xlink:href="#Degradado_sin_nombre_14"/><linearGradient id="Degradado_sin_nombre_14-8" x1="23.43" y1="10937.62" x2="17.65" y2="11005.36" xlink:href="#Degradado_sin_nombre_14"/></defs><title>Ресурс 27</title><g id="Слой_2" data-name="Слой 2"><g id="Слой_1-2" data-name="Слой 1"><g id="Остальные_блоки_редактируются_" data-name="Остальные блоки (редактируются)"><circle class="cls-1" cx="28.5" cy="28.5" r="28.5"/><circle class="cls-2" cx="28.5" cy="28.5" r="27.58"/><circle class="cls-3" cx="28.5" cy="28.5" r="24.87"/><circle class="cls-4" cx="28.5" cy="28.5" r="24.87"/><path class="cls-5" d="M53.09,32.26,44.77,24l-2.35.58L30.36,12.64a1.23,1.23,0,0,0-.58-.59,1.22,1.22,0,0,0-1.1-.7h-.36a1.21,1.21,0,0,0-1.21,1.21V26.67a2.3,2.3,0,0,0-.91,1.83,2.47,2.47,0,0,0,.1.67L18.47,37a1.2,1.2,0,0,0,0,1.71L32.77,53A24.89,24.89,0,0,0,53.09,32.26Z"/><path class="cls-6" d="M53.09,32.25A24.89,24.89,0,0,1,32.77,53l-14-14a1.21,1.21,0,0,0,1.69,0l8.18-8.18a2.3,2.3,0,0,0,2.19-2.28L45,25a.54.54,0,0,0,.38-.38Z"/><path class="cls-7" d="M28.68,28.5h-.36a1.21,1.21,0,0,1-1.21-1.21V12.56a1.21,1.21,0,0,1,1.21-1.21h.36a1.21,1.21,0,0,1,1.21,1.21V27.29A1.21,1.21,0,0,1,28.68,28.5Z"/><path class="cls-8" d="M28.68,28.5l.25.25a1.21,1.21,0,0,1,0,1.72L20.43,39a1.21,1.21,0,0,1-1.71,0l-.25-.26a1.2,1.2,0,0,1,0-1.71L27,28.5A1.21,1.21,0,0,1,28.68,28.5Z"/><path class="cls-9" d="M45.4,24.39h0A.52.52,0,0,1,45,25L28.76,29a.52.52,0,0,1-.63-.37h0a.53.53,0,0,1,.38-.63l16.26-4A.52.52,0,0,1,45.4,24.39Z"/><circle class="cls-10" cx="28.5" cy="28.5" r="2.3"/><path class="cls-11" d="M28.59,9.89h-.18a1.31,1.31,0,0,1-1.3-1.31V7a1.31,1.31,0,0,1,1.3-1.31h.18A1.31,1.31,0,0,1,29.89,7V8.58A1.31,1.31,0,0,1,28.59,9.89Z"/><path class="cls-12" d="M28.59,51.34h-.18A1.31,1.31,0,0,1,27.11,50V48.41a1.3,1.3,0,0,1,1.3-1.3h.18a1.3,1.3,0,0,1,1.3,1.3V50A1.31,1.31,0,0,1,28.59,51.34Z"/><path class="cls-13" d="M47.11,28.59v-.18a1.3,1.3,0,0,1,1.3-1.3H50a1.31,1.31,0,0,1,1.31,1.3v.18A1.31,1.31,0,0,1,50,29.89H48.41A1.3,1.3,0,0,1,47.11,28.59Z"/><path class="cls-14" d="M5.66,28.59v-.18A1.31,1.31,0,0,1,7,27.11H8.58a1.31,1.31,0,0,1,1.31,1.3v.18a1.31,1.31,0,0,1-1.31,1.3H7A1.31,1.31,0,0,1,5.66,28.59Z"/></g></g></g></svg>