<svg xmlns="http://www.w3.org/2000/svg" width="36px" height="36" viewBox="0 0 35.77 35.79"><defs><style>.cls-2{fill:#fff}</style><clipPath id="clip-path" transform="translate(-.04 -.03)"><path fill="none" d="M0 0h35.73v35.9H0z"/></clipPath></defs><g id="Слой_2" data-name="Слой 2"><g id="Слой_1-2" data-name="Слой 1"><g id="block_1"><g id="оффер_2"><g id="round"><path class="cls-2" d="M16.48 24.3a.7.7 0 1 0-1 0 .71.71 0 0 0 1 0z" transform="translate(-.04 -.03)"/><g clip-path="url(#clip-path)"><path class="cls-2" d="M13.17 7.71A7.69 7.69 0 1 0 20.86 0a7.7 7.7 0 0 0-7.69 7.68zm14 0a6.29 6.29 0 1 1-6.29-6.28 6.29 6.29 0 0 1 6.29 6.28zM8.08 35.61a.71.71 0 0 0 1 0l3.39-3.33a2.11 2.11 0 0 0 .53-2.17l.73-.71a2.14 2.14 0 0 1 1.46-.58h9.29A6.24 6.24 0 0 0 28.81 27c.05 0-.37.45 6.34-7.57a2.79 2.79 0 0 0-4.25-3.62l-4.13 4.23a2.8 2.8 0 0 0-2.17-1h-7.79a9.06 9.06 0 0 0-3.5-.69 8.65 8.65 0 0 0-7.88 4.45 2.13 2.13 0 0 0-1.87.58L.24 26.72a.69.69 0 0 0 0 1zm5.23-15.88a7.72 7.72 0 0 1 3.08.64.67.67 0 0 0 .28.06h7.93a1.4 1.4 0 0 1 0 2.8h-5.7a.7.7 0 1 0 0 1.39h5.7a2.8 2.8 0 0 0 2.8-2.79 2.31 2.31 0 0 0 0-.37l4.6-4.7a1.39 1.39 0 1 1 2.13 1.8l-6.27 7.5a4.83 4.83 0 0 1-3.38 1.36h-9.34a3.5 3.5 0 0 0-2.43 1l-.59.57-5.48-5.49a7.23 7.23 0 0 1 6.67-3.77zm-8.76 4.64a.71.71 0 0 1 .87-.1c.12.08-.23-.24 6.05 6a.69.69 0 0 1 0 1l-2.89 2.86-6.86-6.92z" transform="translate(-.04 -.03)"/></g><path class="cls-2" d="M20 3.52v.82a2.09 2.09 0 0 0 .7 4.07.7.7 0 1 1 0 1.4 1.28 1.28 0 0 1-.91-.53.7.7 0 0 0-1-.08.69.69 0 0 0-.09 1 2.84 2.84 0 0 0 1.28.91v.82a.7.7 0 0 0 1.4 0v-.82A2.1 2.1 0 0 0 20.72 7a.7.7 0 0 1 0-1.4 1.08 1.08 0 0 1 .75.36.7.7 0 0 0 1-1 2.69 2.69 0 0 0-1-.64v-.8a.7.7 0 0 0-1.4 0z" transform="translate(-.04 -.03)"/></g></g></g></g></g></svg>