<svg xmlns="http://www.w3.org/2000/svg" width="42px" height="32px" viewBox="0 0 41.67 31.25"><g data-name="Слой 2"><g data-name="Слой 1"><path d="M36.46 0H5.21A5.21 5.21 0 0 0 0 5.21V26a5.21 5.21 0 0 0 5.21 5.21h31.25A5.21 5.21 0 0 0 41.67 26V5.21A5.21 5.21 0 0 0 36.46 0zm-8.58 13.9l11-9.45a2.39 2.39 0 0 1 .15.76V26a2.88 2.88 0 0 1-.1.51zm8.58-11.3a2.84 2.84 0 0 1 .49.1L20.83 16.51 4.72 2.7a2.66 2.66 0 0 1 .49-.1zm-33.75 24a2.21 2.21 0 0 1-.11-.6V5.21a2.4 2.4 0 0 1 .16-.76l11 9.45zm2.5 2.1a2.33 2.33 0 0 1-.74-.16l11.29-12.9L20 19.22a1.27 1.27 0 0 0 .84.31 1.29 1.29 0 0 0 .85-.31l4.23-3.63 11.28 12.9a2.33 2.33 0 0 1-.74.16z" fill="#d1d3d4" data-name="Остальные блоки (редактируются)"/></g></g></svg>