<svg xmlns="http://www.w3.org/2000/svg" viewBox="0 0 18.04 10.6"><defs><style>.cls-1{fill:#005ea9;}</style></defs><title>Ресурс 16</title><g id="Слой_2" data-name="Слой 2"><g id="Слой_1-2" data-name="Слой 1"><g id="Остальные_блоки_редактируются_" data-name="Остальные блоки (редактируются)"><path class="cls-1" d="M17.76,2.28A1,1,0,0,0,18,1.59a1,1,0,0,0-.28-.7L17.17.3a1,1,0,0,0-1.4,0L9,7,2.28.29A1,1,0,0,0,1.58,0a1,1,0,0,0-.7.29L.29.88a1,1,0,0,0-.29.7,1,1,0,0,0,.29.7l8,8a1,1,0,0,0,.7.29,1,1,0,0,0,.7-.29Z"/></g></g></g></svg>