<svg xmlns="http://www.w3.org/2000/svg" viewBox="0 0 30.77 128.51"><defs><style>.cls-1{fill:#b3b3b3;stroke:#b3b3b3;stroke-miterlimit:10;stroke-width:4px;}</style></defs><title>icon_menu_word</title><g id="Слой_2" data-name="Слой 2"><g id="Слой_1-2" data-name="Слой 1"><g id="menu"><g id="menu_closed"><g id="icon_menu_word"><path class="cls-1" d="M3.13,126.51v-1.76L18,114.63,3.13,104.51v-1.77H28.34v1.88H6.44l14.51,10v.15l-14.51,10h21.9v1.8Z"/><path class="cls-1" d="M3.13,91.67V73.74H4.86V89.8h9.9V75.36h1.73V89.8H26.61V73.56h1.73V91.67Z"/><path class="cls-1" d="M3.13,64V62.09H14.79V46H3.13V44.08H28.34V46H16.52V62.09H28.34V64Z"/><path class="cls-1" d="M16.52,25.48v5.65H28.34V33H3.13V31.13H14.79V25.48C8,25.08,2.7,20.44,2.7,13.7c0-7,5.69-11.7,13-11.7S28.77,6.75,28.77,13.77C28.77,20.58,23.47,25.16,16.52,25.48ZM15.73,3.94c-6.41,0-11.34,4.11-11.34,9.83s4.86,9.76,11.34,9.76,11.35-4.1,11.35-9.83S22.21,3.94,15.73,3.94Z"/></g></g></g></g></g></svg>