<svg xmlns="http://www.w3.org/2000/svg" width="58px" height="44px" viewBox="0 0 58 44">
  <defs>
    <linearGradient id="a" y1="22" x2="58" y2="22" gradientUnits="userSpaceOnUse">
      <stop offset="0" stop-color="#127acb"/>
      <stop offset="1" stop-color="#2192ea"/>
    </linearGradient>
  </defs>
  <g>
    <path d="M57.4 9.5s-.6-4.3-2.3-6.2A7.68 7.68 0 0 0 49.3.7C41.2.1 29 0 29 0S16.8.1 8.7.7a8.08 8.08 0 0 0-5.8 2.6C1.1 5.2.6 9.5.6 9.5A100 100 0 0 0 0 19.7v4.7a96.83 96.83 0 0 0 .6 10.1s.6 4.3 2.3 6.2c2.2 2.5 5.1 2.4 6.4 2.7 4.6.5 19.7.6 19.7.6s12.2 0 20.3-.7a8.08 8.08 0 0 0 5.8-2.6c1.7-1.9 2.3-6.2 2.3-6.2a99.4 99.4 0 0 0 .6-10.1v-4.7a100 100 0 0 0-.6-10.2" fill="url(#a)"/>
    <path fill="#fff" d="M22 11.9v21.7L41 23 22 11.9z"/>
  </g>
</svg>
