<svg class="lds-spinner" width="200px" height="200px" xmlns="http://www.w3.org/2000/svg" viewBox="0 0 100 100" preserveAspectRatio="xMidYMid" style="background:0 0"><rect x="47" y="24" rx="7.05" ry="3.6" width="6" height="12" fill="#999"><animate attributeName="opacity" values="1;0" keyTimes="0;1" dur="1s" begin="-0.875s" repeatCount="indefinite"/></rect><rect x="47" y="24" rx="7.05" ry="3.6" width="6" height="12" fill="#999" transform="rotate(45 50 50)"><animate attributeName="opacity" values="1;0" keyTimes="0;1" dur="1s" begin="-0.75s" repeatCount="indefinite"/></rect><rect x="47" y="24" rx="7.05" ry="3.6" width="6" height="12" fill="#999" transform="rotate(90 50 50)"><animate attributeName="opacity" values="1;0" keyTimes="0;1" dur="1s" begin="-0.625s" repeatCount="indefinite"/></rect><rect x="47" y="24" rx="7.05" ry="3.6" width="6" height="12" fill="#999" transform="rotate(135 50 50)"><animate attributeName="opacity" values="1;0" keyTimes="0;1" dur="1s" begin="-0.5s" repeatCount="indefinite"/></rect><rect x="47" y="24" rx="7.05" ry="3.6" width="6" height="12" fill="#999" transform="rotate(180 50 50)"><animate attributeName="opacity" values="1;0" keyTimes="0;1" dur="1s" begin="-0.375s" repeatCount="indefinite"/></rect><rect x="47" y="24" rx="7.05" ry="3.6" width="6" height="12" fill="#999" transform="rotate(225 50 50)"><animate attributeName="opacity" values="1;0" keyTimes="0;1" dur="1s" begin="-0.25s" repeatCount="indefinite"/></rect><rect x="47" y="24" rx="7.05" ry="3.6" width="6" height="12" fill="#999" transform="rotate(270 50 50)"><animate attributeName="opacity" values="1;0" keyTimes="0;1" dur="1s" begin="-0.125s" repeatCount="indefinite"/></rect><rect x="47" y="24" rx="7.05" ry="3.6" width="6" height="12" fill="#999" transform="rotate(315 50 50)"><animate attributeName="opacity" values="1;0" keyTimes="0;1" dur="1s" begin="0s" repeatCount="indefinite"/></rect></svg>