<svg xmlns="http://www.w3.org/2000/svg" width="115px" height="35px" viewBox="0 0 114.78 34.83"><defs><style>.cls-1{fill:#4d4e4e}</style></defs><g id="Слой_2" data-name="Слой 2"><g id="Слой_1-2" data-name="Слой 1"><g id="Остальные_блоки_редактируются_" data-name="Остальные блоки (редактируются)"><path class="cls-1" d="M46.93 5.35h6.45L55.09 0H36.17a6 6 0 0 0-6 6v13a6 6 0 0 0 6 5.95h18.92V9.76H42.87l-1.71 5.35h8.58v4.41H37.06A1.49 1.49 0 0 1 35.58 18V6.84a1.49 1.49 0 0 1 1.48-1.49zM114.78 0l-1.72 5.35H96.22A1.19 1.19 0 0 0 95 6.54V7a1.17 1.17 0 0 0 .9 1.15l14.11 3.53a5.89 5.89 0 0 1 4.5 5.77v1.49a6 6 0 0 1-6 5.95H89.45l1.72-5.35H108a1.2 1.2 0 0 0 1.19-1.19v-.44a1.2 1.2 0 0 0-.9-1.16l-14.1-3.54a5.9 5.9 0 0 1-4.51-5.77V6a6 6 0 0 1 5.95-6h19.15zM60.44 2.68v22.19h5.36v-9.76H80v9.76h5.35V0H80v9.76H65.8V0h-5.36v2.68z"/><path fill="#2678be" fill-rule="evenodd" d="M0 0h24.87v24.87h-5.35V5.35H7.3l-1.72 5.36h8.58v14.16H0V0z"/><path class="cls-1" d="M3.31 30.23l-1 1.55-1-1.55H0v4.52h1.1v-3l1.13 1.72h.1l1.13-1.72v3h1.1v-4.52zm2.63 4.52H7v-4.52H5.94v4.52zm5.29-4.52v1.89l.09 1-1.7-2.85H8.38v4.52h1.1v-1.93l-.09-1 1.69 2.85h1.25v-4.48zm2.44 4.52h1.1v-4.52h-1.1v4.52zM19 30.23v1.89l.08 1-1.69-2.85h-1.27v4.52h1.09v-1.93l-.09-1 1.7 2.85h1.25v-4.48zm4.33 2v.92h1.34a1.13 1.13 0 0 1-1.1.65 1.17 1.17 0 0 1-1.21-1.3 1.2 1.2 0 0 1 1.23-1.33 1.09 1.09 0 0 1 1 .58h1.17a2.18 2.18 0 0 0-2.2-1.62 2.28 2.28 0 0 0-2.34 2.35 2.23 2.23 0 0 0 2.23 2.33 1.52 1.52 0 0 0 1.42-.71v.63h.94v-2.5zm10.55 2.5l-.88-.89a2.37 2.37 0 0 0 .42-1.17h-1.14a1.89 1.89 0 0 1-.1.36l-.42-.44a1.39 1.39 0 0 0 .84-1.22 1.39 1.39 0 0 0-2.76 0 1.49 1.49 0 0 0 .35.9c-.56.34-.85.65-.85 1.23 0 1 .81 1.33 1.65 1.33a2.38 2.38 0 0 0 1.24-.32l.23.24zm-2.63-3.6a.24.24 0 0 1 .27.24c0 .18-.13.28-.4.42a.66.66 0 0 1-.14-.36c0-.22.11-.3.27-.3zm-.16 2.68c-.41 0-.61-.14-.61-.37s.1-.25.39-.41l.67.71a1.41 1.41 0 0 1-.45.07zm8.54 1a2.2 2.2 0 0 0 2.2-1.67h-1.21a1.07 1.07 0 0 1-1 .63 1.3 1.3 0 0 1 0-2.6 1.06 1.06 0 0 1 1 .64h1.18a2.21 2.21 0 0 0-2.2-1.68 2.34 2.34 0 1 0 0 4.68zm5.86-.08h1.31l-1.19-1.67a1.27 1.27 0 0 0 .9-1.34A1.41 1.41 0 0 0 45 30.23h-2v4.52h1.1v-1.57h.34l1.07 1.57zm-.06-3c0 .31-.18.46-.56.46h-.79v-.94h.79c.37 0 .56.16.56.48zm6.1-1.53h-1.26l-.88 1.84-.88-1.84h-1.24l1.57 3.09v1.43h1.1V33.3l1.56-3.07zm3 0h-1.94v4.52h1.1v-1.36h.83a1.5 1.5 0 0 0 1.63-1.58 1.48 1.48 0 0 0-1.63-1.55zm0 2.08h-.79v-1h.79c.37 0 .56.17.56.51s-.19.52-.56.52zm6.12-2.08H57v1.05h1.23v3.47h1.1v-3.44h1.27v-1.05zm3.26-.08a2.34 2.34 0 1 0 2.36 2.34 2.3 2.3 0 0 0-2.36-2.34zm0 1a1.3 1.3 0 1 1-1.25 1.3 1.24 1.24 0 0 1 1.25-1.3zm6 3.56H71v-4.45h-1.18v4.52zm5.29-4.52v1.89l.09 1-1.7-2.85h-1.33v4.52h1.1v-1.86l-.09-1L75 34.75h1.25v-4.52zm5.21 0l-.94 3.19-.95-3.19h-1.26l1.42 4.52h1.38l1.43-4.52zm5.37 1.05v-.98h-3.21v4.52h3.12v-1h-2V33h1.81v-1h-1.83v-.67zm2.79.62c-.44-.09-.65-.12-.65-.33s.15-.4.64-.4.67.21.73.48h1.11a1.61 1.61 0 0 0-1.84-1.5 1.56 1.56 0 0 0-1.74 1.47c0 .94.75 1.21 1.49 1.36s1 .18 1 .45-.2.38-.64.38-.78-.18-.88-.55h-1.18a1.77 1.77 0 0 0 2 1.57 1.55 1.55 0 0 0 1.74-1.45c0-.92-.6-1.21-1.87-1.48zm6.29-1.67h-3.65v1.05h1.23v3.47h1.09v-3.4h1.24v-1.05zm4.36 0l-1 1.55-1-1.55h-1.4v4.52h1.1v-3l1.13 1.72h.1l1.13-1.72v3h1.1v-4.45zm5.74 1.05v-.98h-3.11v4.52h3.11v-1h-2V33h1.84v-1h-1.84v-.67zm4-1.05v1.89l.09 1-1.7-2.85H106v4.52h1.1v-1.86l-.09-1 1.69 2.85h1.25v-4.48zm5.71 0H111v1.05h1.23v3.47h1.1v-3.4h1.23v-1.05z"/></g></g></g></svg>