<svg xmlns="http://www.w3.org/2000/svg" viewBox="0 0 30.77 128.51"><defs><style>.cls-1{fill:#b3b3b3;stroke:#b3b3b3;stroke-miterlimit:10;stroke-width:4px}</style></defs><g id="Слой_2" data-name="Слой 2"><g id="Слой_1-2" data-name="Слой 1"><g id="menu"><g id="menu_closed"><g id="icon_menu_word"><path class="cls-1" d="M3.13 126.51v-1.76L18 114.63 3.13 104.51v-1.77h25.21v1.88H6.44l14.51 10v.15l-14.51 10h21.9v1.8zM3.13 91.67V73.74h1.73V89.8h9.9V75.36h1.73V89.8h10.12V73.56h1.73v18.11zM3.13 64v-1.91h11.66V46H3.13v-1.92h25.21V46H16.52v16.09h11.82V64zM16.52 25.48v5.65h11.82V33H3.13v-1.87h11.66v-5.65C8 25.08 2.7 20.44 2.7 13.7c0-7 5.69-11.7 13-11.7s13.07 4.75 13.07 11.77c0 6.81-5.3 11.39-12.25 11.71zm-.79-21.54c-6.41 0-11.34 4.11-11.34 9.83s4.86 9.76 11.34 9.76 11.35-4.1 11.35-9.83-4.87-9.76-11.35-9.76z"/></g></g></g></g></g></svg>