<svg xmlns="http://www.w3.org/2000/svg" width="38px" height="40px" viewBox="0 0 37.68 39.93">
  <defs>
    <style>
      .cls-2{fill:#fff}.cls-5{fill:#fff}
    </style>
    <filter id="luminosity-invert" filterUnits="userSpaceOnUse" color-interpolation-filters="sRGB">
      <feColorMatrix values="-1 0 0 0 1 0 -1 0 0 1 0 0 -1 0 1 0 0 0 1 0"/>
    </filter>
  </defs>
  <g>
    <path class="cls-2" d="M37.34 10.69L27.4.37a1.26 1.26 0 0 0-.88-.37h-14.8a3.47 3.47 0 0 0-3.47 3.47v10H2.72A2.72 2.72 0 0 0 0 16.21v11.25a2.72 2.72 0 0 0 2.72 2.72h5.53v6.28a3.47 3.47 0 0 0 3.47 3.47H34.2a3.48 3.48 0 0 0 3.48-3.47V11.54a1.22 1.22 0 0 0-.34-.85zm-10.16-.19V3.66l6.58 6.84zM10.69 30.18H23a2.72 2.72 0 0 0 2.72-2.72V16.21A2.72 2.72 0 0 0 23 13.49H10.69v-10a1 1 0 0 1 1-1h13v9.28A1.22 1.22 0 0 0 26 12.94h9.28v23.52a1 1 0 0 1-1 1H11.72a1 1 0 0 1-1-1zm12.55-14v11.28a.27.27 0 0 1-.28.28H2.72a.27.27 0 0 1-.28-.28V16.21a.28.28 0 0 1 .28-.28H23a.28.28 0 0 1 .24.28z"/>
    <path class="cls-2" d="M9.46 19.54a1.57 1.57 0 0 0-.84-.54 6.42 6.42 0 0 0-1.38-.09H5.36v5.78h1.17v-2.2h.76a6.29 6.29 0 0 0 1.21-.08 1.73 1.73 0 0 0 .61-.27 1.61 1.61 0 0 0 .49-.57 1.9 1.9 0 0 0 .19-.9 1.85 1.85 0 0 0-.33-1.13zm-1 1.6a.75.75 0 0 1-.37.28 3 3 0 0 1-.92.09h-.64v-1.64h.56a5.12 5.12 0 0 1 .84 0 .76.76 0 0 1 .47.26.71.71 0 0 1 .19.52.85.85 0 0 1-.13.45zM15.4 20.47a2.4 2.4 0 0 0-.55-.93A1.89 1.89 0 0 0 14 19a4.32 4.32 0 0 0-1.1-.11h-2.16v5.78h2.2a3.54 3.54 0 0 0 1-.12 2 2 0 0 0 .82-.46 2.48 2.48 0 0 0 .62-1 3.8 3.8 0 0 0 .18-1.23 4.19 4.19 0 0 0-.19-1.37zm-1.13 2.38a1.19 1.19 0 0 1-.31.55.92.92 0 0 1-.47.24 3 3 0 0 1-.71.06h-.87v-3.83h.53a4.8 4.8 0 0 1 1 .06 1.06 1.06 0 0 1 .55.27 1.32 1.32 0 0 1 .33.56 3.46 3.46 0 0 1 .11 1 3.82 3.82 0 0 1-.11 1.06zM20.55 19.87v-1h-4v5.78h1.17v-2.43h2.41v-1h-2.37v-1.35z"/>
    <g style="mix-blend-mode:multiply" opacity=".75" mask="url(#mask)">
      <path class="cls-5" d="M37.34 10.69L27.4.37a1.26 1.26 0 0 0-.88-.37h-14.8a3.47 3.47 0 0 0-3.47 3.47v10H2.72A2.72 2.72 0 0 0 0 16.21v11.25a2.72 2.72 0 0 0 2.72 2.72h5.53v6.28a3.47 3.47 0 0 0 3.47 3.47H34.2a3.48 3.48 0 0 0 3.48-3.47V11.54a1.22 1.22 0 0 0-.34-.85zm-10.16-.19V3.66l6.58 6.84zM10.69 30.18H23a2.72 2.72 0 0 0 2.72-2.72V16.21A2.72 2.72 0 0 0 23 13.49H10.69v-10a1 1 0 0 1 1-1h13v9.28A1.22 1.22 0 0 0 26 12.94h9.28v23.52a1 1 0 0 1-1 1H11.72a1 1 0 0 1-1-1zm12.55-14v11.28a.27.27 0 0 1-.28.28H2.72a.27.27 0 0 1-.28-.28V16.21a.28.28 0 0 1 .28-.28H23a.28.28 0 0 1 .24.28z"/>
      <path class="cls-5" d="M9.46 19.54a1.57 1.57 0 0 0-.84-.54 6.42 6.42 0 0 0-1.38-.09H5.36v5.78h1.17v-2.2h.76a6.29 6.29 0 0 0 1.21-.08 1.73 1.73 0 0 0 .61-.27 1.61 1.61 0 0 0 .49-.57 1.9 1.9 0 0 0 .19-.9 1.85 1.85 0 0 0-.33-1.13zm-1 1.6a.75.75 0 0 1-.37.28 3 3 0 0 1-.92.09h-.64v-1.64h.56a5.12 5.12 0 0 1 .84 0 .76.76 0 0 1 .47.26.71.71 0 0 1 .19.52.85.85 0 0 1-.13.45zM15.4 20.47a2.4 2.4 0 0 0-.55-.93A1.89 1.89 0 0 0 14 19a4.32 4.32 0 0 0-1.1-.11h-2.16v5.78h2.2a3.54 3.54 0 0 0 1-.12 2 2 0 0 0 .82-.46 2.48 2.48 0 0 0 .62-1 3.8 3.8 0 0 0 .18-1.23 4.19 4.19 0 0 0-.19-1.37zm-1.13 2.38a1.19 1.19 0 0 1-.31.55.92.92 0 0 1-.47.24 3 3 0 0 1-.71.06h-.87v-3.83h.53a4.8 4.8 0 0 1 1 .06 1.06 1.06 0 0 1 .55.27 1.32 1.32 0 0 1 .33.56 3.46 3.46 0 0 1 .11 1 3.82 3.82 0 0 1-.11 1.06zM20.55 19.87v-1h-4v5.78h1.17v-2.43h2.41v-1h-2.37v-1.35z"/>
    </g>
  </g>
</svg>
