<svg xmlns="http://www.w3.org/2000/svg" xmlns:xlink="http://www.w3.org/1999/xlink" width="32px" height="32px" viewBox="0 0 82 82"><g><path d="M54.64 38.44A16.48 16.48 0 1 1 38.16 22a16.47 16.47 0 0 1 16.48 16.44z" fill="#63a7dc"/><path d="M45.17 30.68l-17 6.62a.62.62 0 0 0 .05 1.17l4.31 1.27 1.61 5.11a.74.74 0 0 0 1.24.29l2.23-2.27L42 46.08a.92.92 0 0 0 1.44-.55l2.89-13.86a.87.87 0 0 0-1.17-1zM43 33.76l-7.88 7A.4.4 0 0 0 35 41l-.3 2.7a.08.08 0 0 1-.16 0l-1.25-4a.41.41 0 0 1 .18-.49l9.31-5.77a.2.2 0 0 1 .24.33z" fill="#fff"/></g></svg>