<svg xmlns="http://www.w3.org/2000/svg" xmlns:xlink="http://www.w3.org/1999/xlink" width="48px" height="54px" viewBox="0 0 48.38 53.76">
  <defs>
    <linearGradient id="a" y1="46.55" x2="48.38" y2="46.55" gradientUnits="userSpaceOnUse">
      <stop offset="0" stop-color="#127acb"/>
      <stop offset="1" stop-color="#2192ea"/>
    </linearGradient>
    <linearGradient id="b" x1="2.69" y1="20.87" x2="45.7" y2="20.87" xlink:href="#a"/>
  </defs>
  <g data-name="Слой 2">
    <g data-name="Слой 1">
      <g data-name="Остальные блоки (редактируются)">
        <path d="M39.65 41.56c-1.43-.62-3-1.33-4.89-2.17h-.09l-.06.06a17 17 0 0 1-2 1.69l-.19.13.21.1c2.32 1.08 4.33 2 6 2.7 6.3 2.75 7.09 3.29 7.09 4.78a2.43 2.43 0 0 1-2.27 2.28H4.94a2.44 2.44 0 0 1-2.27-2.28c0-1.49.8-2 7.1-4.78 1.7-.74 3.7-1.62 6-2.7l.21-.1-.19-.13a16.84 16.84 0 0 1-2-1.69l-.07-.06h-.08c-1.85.84-3.47 1.55-4.9 2.17C2.38 44.34 0 45.38 0 48.82a5.14 5.14 0 0 0 4.94 4.94h38.5a5.14 5.14 0 0 0 4.94-4.94c0-3.44-2.38-4.48-8.73-7.26z" fill="url(#a)"/>
        <path d="M5.38 29.57h2.68a2.63 2.63 0 0 0 2-.91c.09.12.16.23.26.35 1.86 7.36 7.38 12.72 13.89 12.72 6.67 0 12.29-5.63 14-13.27a2.62 2.62 0 0 0 2.11 1.11H43a2.7 2.7 0 0 0 2.69-2.69v-8.06A2.69 2.69 0 0 0 43 16.13h-2.68a16.13 16.13 0 0 0-32.26 0H5.38a2.68 2.68 0 0 0-2.69 2.69v8.06a2.69 2.69 0 0 0 2.69 2.69zm18.81 9.49C19.84 39.06 16 36 14 31.44a28.3 28.3 0 0 0 10.19 2.16 1.35 1.35 0 1 0 0-2.69c-4.72 0-9.76-1.89-11.45-3.23a19.87 19.87 0 0 1-.44-4.13c0-8.55 5.33-15.5 11.89-15.5s11.9 7 11.9 15.5-5.34 15.51-11.9 15.51zM43 18.82v8.06h-2.68v-8.06zM24.19 2.69a13.46 13.46 0 0 1 13.44 13.44v.32C35.38 10 30.2 5.38 24.19 5.38S13 10 10.78 16.45v-.32A13.46 13.46 0 0 1 24.19 2.69zM5.38 18.82h2.68v8.06H5.38z" fill="url(#b)"/>
      </g>
    </g>
  </g>
</svg>
