<svg xmlns="http://www.w3.org/2000/svg" xmlns:xlink="http://www.w3.org/1999/xlink" viewBox="0 0 17.84 20.97"><defs><style>.cls-1{fill:none;}.cls-2{clip-path:url(#clip-path);}.cls-3{fill:#3fa2f2;}</style><clipPath id="clip-path" transform="translate(0 -0.03)"><rect id="SVGID" class="cls-1" width="17.85" height="21.06"/></clipPath></defs><title>Ресурс 21</title><g id="Слой_2" data-name="Слой 2"><g id="Слой_1-2" data-name="Слой 1"><g id="Остальные_блоки_редактируются_" data-name="Остальные блоки (редактируются)"><g class="cls-2"><path class="cls-3" d="M8.84,11.33H9A4,4,0,0,0,12.05,10c1.67-1.89,1.39-5.12,1.36-5.43A4.43,4.43,0,0,0,11.3.64,4.92,4.92,0,0,0,9,0H8.89a4.78,4.78,0,0,0-2.33.6,4.4,4.4,0,0,0-2.14,4c0,.31-.31,3.54,1.37,5.43a4,4,0,0,0,3.05,1.32ZM5.58,4.69a.1.1,0,0,1,0,0c.14-3.12,2.35-3.45,3.3-3.45h0c1.17,0,3.17.5,3.3,3.45a0,0,0,0,0,0,0s.3,3-1.08,4.54a2.82,2.82,0,0,1-2.23.93h0a2.83,2.83,0,0,1-2.23-.93C5.28,7.68,5.58,4.72,5.58,4.69Z" transform="translate(0 -0.03)"/><path class="cls-3" d="M17.84,16.69h0v-.11c0-.86-.09-2.87-2-3.51l0,0a12.78,12.78,0,0,1-3.6-1.64.59.59,0,1,0-.67,1,13.35,13.35,0,0,0,4,1.81c1,.36,1.13,1.44,1.16,2.44v.1a7.41,7.41,0,0,1-.09,1.35,16,16,0,0,1-7.66,1.78,16,16,0,0,1-7.66-1.79,7.3,7.3,0,0,1-.09-1.34V16.6c0-1,.15-2.07,1.16-2.43a13.64,13.64,0,0,0,4-1.81.58.58,0,0,0,.15-.82.59.59,0,0,0-.82-.14A12.62,12.62,0,0,1,2,13H2C.09,13.7,0,15.71,0,16.57a.31.31,0,0,1,0,.1v0a6.87,6.87,0,0,0,.22,2,.6.6,0,0,0,.23.27A16.36,16.36,0,0,0,8.93,21a16.52,16.52,0,0,0,8.48-2.08.58.58,0,0,0,.22-.27,7.1,7.1,0,0,0,.21-2Z" transform="translate(0 -0.03)"/></g></g></g></g></svg>