<svg xmlns="http://www.w3.org/2000/svg" viewBox="0 0 35.16 26.67"><defs><style>.cls-1{fill:#d93829;}.cls-2{fill:#fff;}</style></defs><title>yt</title><g id="Слой_2" data-name="Слой 2"><g id="Слой_1-2" data-name="Слой 1"><g id="Остальные_блоки_редактируются_" data-name="Остальные блоки (редактируются)"><path class="cls-1" d="M34.79,5.76A8.88,8.88,0,0,0,33.4,2,4.65,4.65,0,0,0,29.88.42C25,.06,17.58,0,17.58,0h0S10.18.06,5.27.42A4.92,4.92,0,0,0,1.76,2C.67,3.15.36,5.76.36,5.76A61.2,61.2,0,0,0,0,11.94v2.85a59.26,59.26,0,0,0,.36,6.12,9,9,0,0,0,1.4,3.76c1.33,1.52,3.09,1.45,3.88,1.64,2.79.3,11.94.36,11.94.36s7.39,0,12.3-.42a4.94,4.94,0,0,0,3.52-1.58,8.88,8.88,0,0,0,1.39-3.76,59.19,59.19,0,0,0,.37-6.12V11.94a59.57,59.57,0,0,0-.37-6.18"/><polygon class="cls-2" points="13.34 7.21 13.34 20.37 24.85 13.94 13.34 7.21"/></g></g></g></svg>