<svg xmlns="http://www.w3.org/2000/svg" width="28px" height="61px" viewBox="0 0 28 61.07">
  <defs/>
      <g>
        <path fill="#00406b" d="M27.14.07h-4.8C22.22.07 22.09 0 22 0s-.26.07-.38.07H1.28A1.36 1.36 0 0 0 0 1.23v58.89c0 .58.69 1 1.28 1h25.86a.75.75 0 0 0 .65-.26.79.79 0 0 0 .21-.69V1.23c0-.58-.28-1.16-.86-1.16zm-1.14 59h-3V47.7a1 1 0 1 0-2 0v11.37h-3V55a1 1 0 1 0-2 0v4.07h-3V47.7a1 1 0 1 0-2 0v11.37H8V42.58a1 1 0 1 0-2 0v16.49H2v-57h9v10.56c0 .58.25 1 .84 1a1.09 1.09 0 0 0 .8-.29 1 1 0 0 0 .36-.73V2.07h3v4.35a.93.93 0 0 0 .93 1 1 1 0 0 0 1.07-1V2.07h3v6.39a1 1 0 0 0 1 1 1 1 0 0 0 1-1V2.07h3z"/>
        <path fill="#00406b" d="M7 21.91a1 1 0 1 0-2 0v13.44a1.2 1.2 0 0 0 1.24 1 .68.68 0 0 0 .6-.29c.22-.22 1.16-.51.16-.73zM7 6.34a1 1 0 0 0-1 1v9.35c0 .58.2 1 .78 1a1.16 1.16 0 0 0 .83-.29 1.19 1.19 0 0 0 .39-.68V7.37a1 1 0 0 0-1-1.03zM11.84 26.07a1.09 1.09 0 0 0 .8-.29 1.15 1.15 0 0 0 .36-.73v-8.33a1 1 0 1 0-2 0v8.33c0 .58.25 1.02.84 1.02zM16.89 19.79a1.07 1.07 0 0 0 .78-.29 1 1 0 0 0 .33-.74v-7.3a1 1 0 1 0-2 0v7.3c0 .59.31 1.03.89 1.03z"/>
        <circle fill="#00406b" cx="16.84" cy="39.44" r="2.05"/>
        <path fill="#00406b" d="M17.05 43.53c-2.41-.22-4.27-2.63-4.27-4.09l-.09-9.28c0-.58-.26-1-.84-1s-.85.44-.85 1v9.35a6.86 6.86 0 0 0 5 6.07v3.21a.93.93 0 0 0 .93 1 1 1 0 0 0 .75-.3 1.07 1.07 0 0 0 .32-.87v-4.06a1.09 1.09 0 0 0-.95-1.03zM21.23 34.62A7.21 7.21 0 0 0 18 33.23v-9.35a1 1 0 1 0-2 0v10.37c0 .3-.06.51.16.73a.83.83 0 0 0 .67.3 4.86 4.86 0 0 1 3 .95A3.94 3.94 0 0 1 21 39.44v3.07a1 1 0 0 0 1 1 1 1 0 0 0 .76-.29 1 1 0 0 0 .25-.8v-3.05a6 6 0 0 0-1.78-4.75zM22 19.79a1 1 0 0 0-1 1v10.4a1 1 0 0 0 1 1 .91.91 0 0 0 .71-.29 1.1 1.1 0 0 0 .27-.73V20.81a1 1 0 0 0-.98-1.02zM22 12.63a1 1 0 0 0-1 1v2a1 1 0 0 0 1 1 .88.88 0 0 0 .71-.29 1.1 1.1 0 0 0 .29-.64v-2a1 1 0 0 0-1-1.07z"/>
      </g>
</svg>
