<svg xmlns="http://www.w3.org/2000/svg" width="61px" height="61px" viewBox="0 0 61.25 60.87">
  <defs>
    <linearGradient id="linear-gradient" y1="37.24" x2="61.25" y2="37.24" gradientUnits="userSpaceOnUse">
      <stop offset="0" stop-color="#127acb"/>
      <stop offset="1" stop-color="#2192ea"/>
    </linearGradient>
  </defs>
  <g>
    <path fill="#00406b" d="M59.85 13.73A1.27 1.27 0 0 0 58.58 15v10.17H56v-2.55a5.08 5.08 0 0 0-8.9-3.35 5.06 5.06 0 0 0-7.62 0 5.07 5.07 0 0 0-7.63 0 5.06 5.06 0 0 0-7.62 0 5.07 5.07 0 0 0-7.63 0 5.07 5.07 0 0 0-8.73 2.08h-4a1.27 1.27 0 0 0-1.27 1.27v2.55H1.4a1.27 1.27 0 0 0 0 2.54h1.27v2.54a1.27 1.27 0 0 0 1.27 1.27h3.81v24.14A5.07 5.07 0 0 0 16.64 59a5.07 5.07 0 0 0 7.63 0 5.06 5.06 0 0 0 7.62 0 5.07 5.07 0 0 0 7.63 0 5.06 5.06 0 0 0 7.62 0A5.08 5.08 0 0 0 56 55.66V27.71h3.81a1.27 1.27 0 0 0 1.27-1.27V15a1.27 1.27 0 0 0-1.23-1.27zM5.21 29v-5.11h2.54V29zm7.62 29.2a2.54 2.54 0 0 1-2.54-2.54v-33a2.54 2.54 0 1 1 5.08 0v33a2.54 2.54 0 0 1-2.54 2.54zm7.63 0a2.54 2.54 0 0 1-2.54-2.54v-33a2.54 2.54 0 1 1 5.08 0v33a2.54 2.54 0 0 1-2.54 2.54zm7.62 0a2.54 2.54 0 0 1-2.54-2.54v-33a2.54 2.54 0 1 1 5.08 0v33a2.54 2.54 0 0 1-2.54 2.54zm7.62 0a2.54 2.54 0 0 1-2.53-2.54v-33a2.54 2.54 0 1 1 5.08 0v33a2.55 2.55 0 0 1-2.55 2.54zm7.63 0a2.54 2.54 0 0 1-2.54-2.54v-33a2.54 2.54 0 1 1 5.08 0v33a2.54 2.54 0 0 1-2.54 2.54zm10.17-2.54a2.55 2.55 0 0 1-5.09 0v-33a2.55 2.55 0 0 1 5.09 0z"/>
    <path d="M51 60.87a5.19 5.19 0 0 1-3.81-1.67 5.18 5.18 0 0 1-7.62 0 5.19 5.19 0 0 1-7.63 0 5.18 5.18 0 0 1-7.62 0 5.19 5.19 0 0 1-7.63 0 5.15 5.15 0 0 1-3.81 1.67 5.21 5.21 0 0 1-5.21-5.21v-24H3.94a1.4 1.4 0 0 1-1.4-1.39v-2.44H1.4a1.4 1.4 0 1 1 0-2.83h1.14v-2.38a1.4 1.4 0 0 1 1.4-1.39h3.87a5.21 5.21 0 0 1 8.83-2.15 5.21 5.21 0 0 1 7.63 0 5.2 5.2 0 0 1 7.62 0 5.21 5.21 0 0 1 7.63 0 5.2 5.2 0 0 1 7.62 0 5.21 5.21 0 0 1 9 3.54V25h2.29V15a1.4 1.4 0 1 1 2.8 0v11.44a1.4 1.4 0 0 1-1.4 1.39h-3.67v27.83A5.21 5.21 0 0 1 51 60.87zm-3.81-2l.1.11a5 5 0 0 0 8.67-3.28V27.58h3.94a1.15 1.15 0 0 0 1.1-1.14V15a1.15 1.15 0 0 0-2.3 0v10.29h-2.79v-2.67a5 5 0 0 0-8.67-3.27l-.1.11-.09-.11a5 5 0 0 0-7.44 0l-.09.11-.1-.11a4.95 4.95 0 0 0-7.43 0l-.1.11-.09-.11a5 5 0 0 0-7.44 0l-.09.11-.09-.11a5 5 0 0 0-7.44 0l-.1.11-.09-.11a5 5 0 0 0-8.52 2v.1H3.94a1.15 1.15 0 0 0-1.15 1.14v2.67H1.4a1.15 1.15 0 1 0 0 2.29h1.39v2.67a1.15 1.15 0 0 0 1.15 1.14h3.93v24.3a5 5 0 0 0 8.68 3.28l.09-.11.1.11a5 5 0 0 0 7.44 0l.09-.11.09.11a5 5 0 0 0 7.44 0l.09-.11.1.11a4.95 4.95 0 0 0 7.43 0l.1-.11.09.11a5 5 0 0 0 7.44 0zm3.81-.5a2.67 2.67 0 0 1-2.66-2.67v-33a2.67 2.67 0 0 1 5.33 0v33A2.68 2.68 0 0 1 51 58.33zm0-38.12a2.41 2.41 0 0 0-2.41 2.41v33a2.42 2.42 0 1 0 4.83 0v-33A2.41 2.41 0 0 0 51 20.21zm-7.67 38.08a2.67 2.67 0 0 1-2.66-2.67v-33a2.67 2.67 0 0 1 5.33 0v33a2.68 2.68 0 0 1-2.67 2.67zm0-38.12a2.41 2.41 0 0 0-2.41 2.41v33a2.42 2.42 0 1 0 4.83 0v-33a2.42 2.42 0 0 0-2.42-2.41zM35.7 58.33a2.67 2.67 0 0 1-2.7-2.67v-33a2.67 2.67 0 0 1 5.33 0v33a2.67 2.67 0 0 1-2.63 2.67zm0-38.12a2.41 2.41 0 0 0-2.41 2.41v33a2.42 2.42 0 1 0 4.83 0v-33a2.41 2.41 0 0 0-2.42-2.41zm-7.62 38.12a2.67 2.67 0 0 1-2.66-2.67v-33a2.67 2.67 0 0 1 5.33 0v33a2.68 2.68 0 0 1-2.67 2.67zm0-38.12a2.41 2.41 0 0 0-2.41 2.41v33a2.42 2.42 0 1 0 4.83 0v-33a2.42 2.42 0 0 0-2.42-2.41zm-7.62 38.12a2.68 2.68 0 0 1-2.67-2.67v-33a2.67 2.67 0 0 1 5.33 0v33a2.67 2.67 0 0 1-2.66 2.67zm0-38.12A2.41 2.41 0 0 0 18 22.62v33a2.42 2.42 0 1 0 4.83 0v-33a2.41 2.41 0 0 0-2.37-2.41zm-7.63 38.12a2.67 2.67 0 0 1-2.66-2.67v-33a2.67 2.67 0 0 1 5.33 0v33a2.68 2.68 0 0 1-2.67 2.67zm0-38.12a2.41 2.41 0 0 0-2.41 2.41v33a2.42 2.42 0 1 0 4.83 0v-33a2.42 2.42 0 0 0-2.42-2.41zm-5 8.89H5.08v-5.33h2.79zm-2.54-.25h2.33V24H5.33z" fill="url(#linear-gradient)"/>
    <path fill="#00406b" d="M41.27 14.37a1 1 0 0 0 .79.38 1 1 0 0 0 1-1 1 1 0 0 0-.23-.64 3.51 3.51 0 0 1-.45-.92 1.45 1.45 0 0 1 .38-1.56A3.62 3.62 0 0 0 43.68 7c-.21-.72-.58-1.63-.76-1.63h-.13a1 1 0 0 0-.73-.37 1.05 1.05 0 0 0-.79 1.71 2.73 2.73 0 0 1 .45.88 1.41 1.41 0 0 1-.39 1.54 3.47 3.47 0 0 0-.89 3.56 4.93 4.93 0 0 0 .83 1.68zM31.89 14.75a1 1 0 0 0 1-1 1.08 1.08 0 0 0-.21-.62 5.7 5.7 0 0 1-.82-1.79 3.38 3.38 0 0 1 .77-3.27 5.43 5.43 0 0 0 1.19-5.22 7.45 7.45 0 0 0-1.08-2.4 1 1 0 0 0-1.87.55 1.45 1.45 0 0 0 .21.76l.3.55h-.05c.19 0 .43.67.57 1.25a3.26 3.26 0 0 1-.77 3.19 5.39 5.39 0 0 0-1.2 5.25A7.61 7.61 0 0 0 31 14.29l.06.06a1 1 0 0 0 .83.4zM20.93 14.37a1 1 0 0 0 .8.38 1 1 0 0 0 1-1 1 1 0 0 0-.23-.64 3.2 3.2 0 0 1-.45-.92 1.44 1.44 0 0 1 .38-1.56A3.64 3.64 0 0 0 23.35 7c-.22-.75-.61-1.63-.76-1.63h-.11a1 1 0 0 0-.75-.37 1.05 1.05 0 0 0-.79 1.71 3 3 0 0 1 .45.89A1.4 1.4 0 0 1 21 9.16a3.52 3.52 0 0 0-.9 3.57 5.46 5.46 0 0 0 .83 1.64z"/>
  </g>
</svg>