<svg xmlns="http://www.w3.org/2000/svg" width="53px" height="49px" viewBox="0 0 52.95 49.1">
  <defs/>
      <g>
        <path fill="#00406b" d="M52 49.1H1a1 1 0 0 1-1-1v-7.04a.84.84 0 0 1 0-.27L9.67 7.43a1 1 0 0 1 .92-.69h31.77a1 1 0 0 1 .93.69l9.62 33.36a.84.84 0 0 1 0 .27v7.08a1 1 0 0 1-.91.96zM1.93 47.18H51v-6L41.64 8.66H11.31L1.93 41.2z"/>
        <path fill="#00406b" d="M22.14 16.37a1 1 0 0 1-1-1V1a1 1 0 0 1 1.93 0v14.4a1 1 0 0 1-.93.97zM30.81 16.37a1 1 0 0 1-1-1V1a1 1 0 0 1 1.92 0v14.4a1 1 0 0 1-.92.97z"/>
        <path fill="#00406b" d="M30.81 4.81h-8.67a1 1 0 0 1 0-1.92h8.67a1 1 0 1 1 0 1.92zM30.81 8.66h-8.67a1 1 0 1 1 0-1.92h8.67a1 1 0 1 1 0 1.92zM30.81 12.52h-8.67a1 1 0 0 1 0-1.93h8.67a1 1 0 0 1 0 1.93z"/>
        <path fill="#00406b" d="M45.25 40.44H7.7a1 1 0 0 1-.7-.36 1 1 0 0 1-.19-.81l5.93-27.92a1 1 0 0 1 .94-.76h26.63a1 1 0 0 1 .95.8l4.94 27.92a1 1 0 0 1-.21.78 1 1 0 0 1-.74.35zM8.89 38.51H44.1l-4.6-26H14.41z"/>
      </g>
</svg>
