<svg xmlns="http://www.w3.org/2000/svg" width="97px" height="38px" viewBox="0 0 96.42 37.89"><defs><style>.cls-1{fill:#333}</style></defs><g id="Слой_2" data-name="Слой 2"><g id="Слой_1-2" data-name="Слой 1"><g id="Остальные_блоки_редактируются_" data-name="Остальные блоки (редактируются)"><path class="cls-1" d="M39.44 4.52h5.4L46.25 0H30.41a5 5 0 0 0-5 5v10.84a5 5 0 0 0 5 5h15.84V8.23H36l-1.48 4.51h7.28v3.71H31.15a1.28 1.28 0 0 1-1.28-1.28V5.8a1.28 1.28 0 0 1 1.28-1.28zM96.42 0l-1.49 4.52H80.77a1 1 0 0 0-1 1v.34a.89.89 0 0 0 .74.94l11.87 3a4.92 4.92 0 0 1 3.78 4.85v1.21a5 5 0 0 1-5 5H75l1.49-4.51h14.2a1 1 0 0 0 1-1V15a.9.9 0 0 0-.69-1l-11.87-3a4.93 4.93 0 0 1-3.82-4.8V5a5 5 0 0 1 5-5h16.11zM50.77 2.29V21h4.52v-8.26h11.93V21h4.52V0h-4.52v8.23h-12V0H50.7l.07 2.29z"/><path fill="#0071bc" d="M0 0h20.9v20.9h-4.52V4.52H6.14L4.72 9.04h7.21V20.9H0V0z"/><path class="cls-1" d="M1.15 25.08H3v1.69H1.15zm.06 2.83H3v7.62H1.21zM10.52 27.91h1.75v1.22a2.69 2.69 0 0 1 2.36-1.35c1.75 0 2.7 1.14 2.7 3v4.82h-1.76v-4.32c0-1.21-.6-1.88-1.61-1.88a1.74 1.74 0 0 0-1.76 1.88v4.32h-1.75v-7.69zM24.34 31.69a3.66 3.66 0 0 1 3.57-4 3.18 3.18 0 0 1 2.63 1.35V25h1.76v10.53h-1.76v-1.28a3 3 0 0 1-2.63 1.42 3.66 3.66 0 0 1-3.57-3.98zm6.2 0a2.26 2.26 0 0 0-2.22-2.43 2.28 2.28 0 0 0-2.23 2.5 2.25 2.25 0 0 0 2.23 2.42 2.36 2.36 0 0 0 2.22-2.49zM39.65 32.77v-4.86h1.75v4.32c0 1.21.61 1.89 1.62 1.89a1.74 1.74 0 0 0 1.75-1.89v-4.32h1.75v7.62h-1.75v-1.21a2.69 2.69 0 0 1-2.36 1.35 2.59 2.59 0 0 1-2.76-2.9zM53.33 34.52l.81-1.21a4.48 4.48 0 0 0 2.5.94c.74 0 1.21-.34 1.21-.88s-.74-.74-1.55-1c-.07 0-.07 0-.14-.06C55 32 53.8 31.49 53.8 30a2.49 2.49 0 0 1 2.7-2.36 5.36 5.36 0 0 1 2.83.88l-.67 1.21A4.36 4.36 0 0 0 56.5 29c-.67 0-1.08.34-1.08.81s.74.74 1.55 1c.07 0 .07 0 .14.07 1.14.34 2.36.88 2.36 2.23 0 1.61-1.22 2.42-2.83 2.42a4.6 4.6 0 0 1-3.31-1.01zM66.68 33.44v-4h-.94v-1.53h.94v-2.09h1.76v2.09h2v1.49h-2v3.77c0 .68.33.95.94.95a2 2 0 0 0 1.08-.27v1.41a2.82 2.82 0 0 1-1.55.41c-1.35 0-2.23-.54-2.23-2.23zM77.54 27.91h1.75v1.76A2.69 2.69 0 0 1 82 27.78v1.82h-.14c-1.55 0-2.63 1-2.63 3v2.9h-1.69zM88.53 37.42l.6-1.28a2 2 0 0 0 1 .27c.47 0 .81-.2 1.07-.88l-3.16-7.62h1.88l2.16 5.67 2-5.67h1.82l-3 7.82c-.6 1.56-1.28 2.16-2.49 2.16a3.83 3.83 0 0 1-1.88-.47z"/></g></g></g></svg>