<svg xmlns="http://www.w3.org/2000/svg" width="48px" height="56px" viewBox="0 0 47.27 55.58"><defs><style>.cls-3{fill:#bcbec0}</style><clipPath id="clip-path" transform="translate(0 -.08)"><path id="SVGID" fill="none" d="M0 0h47.3v55.79H0z"/></clipPath></defs><g id="Слой_2" data-name="Слой 2"><g clip-path="url(#clip-path)" id="Слой_1-2" data-name="Слой 1"><path class="cls-3" d="M23.43 30h.37a10.66 10.66 0 0 0 8.12-3.51c4.43-5 3.69-13.56 3.61-14.38C35.24 6 32.34 3.07 30 1.7A12.91 12.91 0 0 0 23.76.08h-.2a12.8 12.8 0 0 0-6.19 1.58C15 3 12 6 11.72 12.14c-.08.82-.82 9.38 3.61 14.38a10.6 10.6 0 0 0 8.1 3.48zm-8.64-17.6v-.09C15.18 4.09 21 3.2 23.55 3.2h.14c3.11.07 8.39 1.33 8.74 9.14a.13.13 0 0 0 0 .09c0 .08.81 7.91-2.85 12a7.53 7.53 0 0 1-5.92 2.46h-.12a7.5 7.5 0 0 1-5.91-2.46c-3.65-4.1-2.87-12-2.86-12z" transform="translate(0 -.08)"/><path class="cls-3" d="M47.27 44.23v-.28C47.19 41.63 47 36.3 42 34.6h-.11a33.12 33.12 0 0 1-9.55-4.35 1.55 1.55 0 1 0-1.79 2.54 35.81 35.81 0 0 0 10.51 4.8c2.68 1 3 3.82 3.06 6.45a2.81 2.81 0 0 0 0 .29 20.42 20.42 0 0 1-.24 3.55c-1.86 1.06-9.17 4.72-20.29 4.72S5.22 48.89 3.34 47.83a20.47 20.47 0 0 1-.24-3.56v-.28c.08-2.63.38-5.49 3.06-6.45a36.1 36.1 0 0 0 10.51-4.8 1.55 1.55 0 1 0-1.77-2.54 32.94 32.94 0 0 1-9.56 4.35h-.11C.23 36.3.08 41.63 0 43.89a2.62 2.62 0 0 1 0 .29 17.72 17.72 0 0 0 .59 5.21 1.46 1.46 0 0 0 .6.72c.34.23 8.62 5.51 22.46 5.51s22.12-5.29 22.47-5.51a1.57 1.57 0 0 0 .6-.72 18.74 18.74 0 0 0 .55-5.2z" transform="translate(0 -.08)"/></g></g></svg>