<svg xmlns="http://www.w3.org/2000/svg" width="19px" height="23px" viewBox="0 0 19.16 22.99"><g data-name="Слой 2"><path d="M12.32 13.68a6.85 6.85 0 0 0 6.83-7 6.92 6.92 0 0 0-7-6.67H5.12a.74.74 0 0 0-.74.74v9.52H.74A.74.74 0 0 0 0 11v1.94a.74.74 0 0 0 .74.74h3.64v2H.74a.74.74 0 0 0-.74.73v1.95a.74.74 0 0 0 .74.73h3.64v3.17a.76.76 0 0 0 .75.75h1.92a.76.76 0 0 0 .75-.75v-3.19h6a.73.73 0 0 0 .73-.73v-1.95a.73.73 0 0 0-.73-.73h-6v-2zm3.42-6.84a3.42 3.42 0 0 1-3.42 3.42H7.8V3.41h4.52a3.43 3.43 0 0 1 3.42 3.43z" fill="#fff" data-name="Слой 1"/></g></svg>