<svg xmlns="http://www.w3.org/2000/svg" width="32px" height="32px" viewBox="0 0 32.95 32.95"><defs><style>.cls-1{fill:#63a7dc;}.cls-2{fill:#fff;}</style></defs><title>tm2</title><g id="Слой_2" data-name="Слой 2"><g id="Слой_1-2" data-name="Слой 1"><g id="Остальные_блоки_редактируются_" data-name="Остальные блоки (редактируются)"><path class="cls-1" d="M33,16.48A16.48,16.48,0,1,1,16.48,0,16.48,16.48,0,0,1,33,16.48Z"/><path class="cls-2" d="M23.49,8.72l-17,6.61a.62.62,0,0,0,0,1.17l4.32,1.28,1.61,5.11a.74.74,0,0,0,1.23.29L16,20.9l4.38,3.22a.91.91,0,0,0,1.43-.55l2.9-13.86a.87.87,0,0,0-1.17-1Zm-2.13,3.07-7.88,7a.4.4,0,0,0-.14.27L13,21.73a.08.08,0,0,1-.16,0l-1.25-4a.44.44,0,0,1,.18-.49l9.32-5.77a.2.2,0,0,1,.24.32Z"/></g></g></g></svg>